<svg id="Layer_2" data-name="Layer 2" xmlns="http://www.w3.org/2000/svg" viewBox="0 0 426.46 463.37"><defs><style>.cls-1{fill:#ce1f52;}</style></defs><title>Untitled-2</title><path class="cls-1" d="M221.67,628.77c65.67,13.37,134-33.33,157.45-92.66,9.24-23.42,13.62-49.38,7.5-73.75-11.44-45.52-63-77.46-110.08-68.14,22.7-20.19,51.24-32.9,76-50.66s46.84-43.65,46.65-73.63c-0.24-38.27-38.25-68.35-77.07-73.61,11.5,10.21,6.63,32.16-8.16,36.8-33.3,10.46-31.71-31.63-13.73-46.17,21-17,52.8-20.89,77.63-10.17,33.31,14.37,53.62,50.49,54.12,86.05S415.45,332.68,391,359.07c59.53,15,96.71,81.45,86.19,140.59C456.76,614.81,320,648.8,221.67,628.77Z" transform="translate(-52.54 -170.81)"/><path class="cls-1" d="M303,176.71c-23.36,3.22-46.23,17.73-62.89,33.23-64.34,59.86-41.49,148-45.43,224.91-3.8,74.05-54.88,180.53-142.1,185.7,6.69-.4,17.56,5.4,24.27,6.8a184.91,184.91,0,0,0,60.09,3C228.74,619,268.41,532.09,271,450.63c2-63.32-20.12-125.74-5.34-188C268.45,251,291,178.36,303,176.71Z" transform="translate(-52.54 -170.81)"/></svg>